<?xml version="1.0" encoding="UTF-8"?>
<svg width="249px" height="64px" viewBox="0 0 249 64" version="1.1" xmlns="http://www.w3.org/2000/svg" xmlns:xlink="http://www.w3.org/1999/xlink">
    <!-- Generator: sketchtool 64 (101010) - https://sketch.com -->
    <title>524E451D-2AE1-403E-94C5-CD12FA530967</title>
    <desc>Created with sketchtool.</desc>
    <g id="Page-1" stroke="none" stroke-width="1" fill="none" fill-rule="evenodd">
        <g id="vedras-UVD-robots" transform="translate(-835.000000, -81.000000)" fill="#F6F6F6">
            <g id="Group-4" transform="translate(835.500000, 81.000000)">
                <path d="M51.1633121,49.387251 C52.2924841,47.0445248 52.869707,44.5888815 52.869707,42.090028 C52.869707,39.8002955 52.4645096,37.5627414 51.6732739,35.4364739 C50.9064968,33.3864357 49.7964841,31.4925248 48.3746242,29.8118115 C48.180586,29.5770089 47.9779873,29.3503592 47.7672357,29.1257478 C47.7798726,29.435149 47.7892484,29.7490344 47.7892484,30.0665885 C47.7892484,43.2575185 37.0983949,53.9500025 23.9025732,53.9500025 C10.7153121,53.9500025 0,42.1544357 0,28.9635057 C0,46.7290089 14.3995924,61.1355312 32.1655032,61.1355312 C33.5213248,61.1355312 34.8718471,61.0046777 36.1958726,60.7690599 C39.9739108,59.992907 43.6064204,58.1601427 46.5549045,55.4868178 C48.5266752,53.6984866 50.0802038,51.6451873 51.1633121,49.387251" id="Fill-7"></path>
                <path d="M21.1446217,50.9386191 L28.900851,43.6878675 L21.1446217,36.5573707 C14.0716025,35.2912306 8.70497834,29.110135 8.70497834,21.6739057 C8.70497834,13.3225172 16.6324178,6.51609682 24.9862522,6.51609682 C12.6252841,6.51609682 2.60663439,16.531893 2.60663439,28.8900076 C2.60663439,39.9408102 10.6131567,49.1168611 21.1446217,50.9386191" id="Fill-9"></path>
                <path d="M64.3364688,31.7172994 C64.3364688,15.8338854 52.8238064,2.63847134 37.6831185,0.0222165605 L26.5344815,10.4448408 L37.6831185,20.6962548 C47.8534115,22.5118981 55.5725452,31.4030064 55.5725452,42.0897834 C55.5725452,54.094879 44.1719847,63.8872866 32.1656662,63.8872866 C49.9360611,63.8872866 64.3364688,49.4836178 64.3364688,31.7172994" id="Fill-11"></path>
                <path d="M212.999704,32.9079847 C212.999704,36.2094879 212.315679,38.6072459 210.95415,40.1130803 C209.694125,41.6670166 207.843832,42.4452076 205.411424,42.4452076 C203.568876,42.4452076 202.110329,41.9609274 201.044341,40.984214 C200.50829,40.4995261 200.127144,39.9553223 199.913539,39.3495643 C199.69708,38.7433987 199.58987,37.9542013 199.58987,36.9844178 C199.58987,34.9934879 200.266558,33.5610293 201.625641,32.687042 C203.230532,31.6663032 205.657233,31.1600102 208.908189,31.1600102 L212.999704,31.1600102 L212.999704,32.9079847 Z M158.96373,39.2280866 C157.57122,41.0796025 155.682201,42.0008764 153.289335,42.0008764 C150.752978,42.0008764 148.785692,41.0681885 147.389106,39.1918064 C146.000673,37.3186854 145.303195,34.4794497 145.303195,30.6822522 C145.303195,26.8887236 146.010864,23.9679592 147.421717,21.9154752 C148.842762,19.8727745 150.774991,18.852851 153.217182,18.852851 C155.659781,18.852851 157.57122,19.9102777 158.96373,22.0292076 C160.359501,24.1440611 161.052902,27.0786854 161.052902,30.8285962 C161.052902,34.578507 160.359501,37.3814624 158.96373,39.2280866 L158.96373,39.2280866 Z M132.698864,36.1438573 C132.066609,38.651679 131.111908,40.3592968 129.845361,41.2483669 C128.57066,42.1443669 126.840622,42.5882904 124.639755,42.5882904 C121.610966,42.5882904 119.31838,41.7032968 117.754252,39.9369783 C116.192978,38.1669911 115.403373,35.8499465 115.403373,32.9915516 L137.175603,32.9915516 C137.255908,34.0974879 137.398583,35.1475771 137.609335,36.1438573 L132.698864,36.1438573 Z M117.934431,20.905335 C119.233997,19.3408 121.052494,18.5585325 123.39522,18.5585325 C126.032673,18.5585325 128.008112,19.3884943 129.334176,21.0484178 C130.012902,21.8783796 130.538762,22.8188127 130.909717,23.8693096 C131.272927,24.9230675 131.45759,26.2267108 131.45759,27.7875771 L115.403373,27.7875771 C115.80001,24.7616408 116.644647,22.4662013 117.934431,20.905335 L117.934431,20.905335 Z M247.757004,34.6335389 C247.386456,33.5651057 246.791297,32.6140739 245.96215,31.7873732 C244.499526,30.1792204 241.984775,28.7646981 238.417896,27.5458446 L235.630431,26.5242904 C233.529845,25.793386 231.990991,25.0738955 231.01387,24.3723414 C230.037157,23.6675261 229.548392,22.866507 229.548392,21.9929274 C229.548392,20.7732586 230.046532,19.8140739 231.050558,19.1059975 C232.049692,18.3971057 233.55145,18.0440866 235.556239,18.0440866 C238.194099,18.0440866 240.041131,18.5181758 241.09122,19.4732841 C242.142125,20.4243159 242.663908,21.9268892 242.663908,23.9793732 L242.663908,25.3021758 L247.137386,25.3021758 L247.20587,14.8192204 L243.988749,14.0887236 L240.753692,13.6484688 C239.339577,13.4540229 237.58345,13.3582268 235.483679,13.3582268 C231.131271,13.3582268 227.840367,14.1881885 225.593029,15.855042 C223.099068,17.4240611 221.857794,19.8038828 221.857794,22.9879847 C221.857794,25.4375134 222.588698,27.4463796 224.054583,29.0141758 C224.741055,29.6570293 225.886532,30.3911949 227.498762,31.2223796 C228.773462,31.9125197 230.845106,32.7677554 233.727552,33.7999083 L234.091169,33.7999083 C238.293564,35.3611822 240.389666,37.0463796 240.389666,38.8502013 C240.389666,40.1240866 239.884189,41.1745834 238.855704,42.0008764 C237.631959,42.7835516 235.949615,43.172851 233.801335,43.172851 C231.25601,43.172851 229.379628,42.6914242 228.159552,41.7114497 C227.619832,41.2190166 227.234609,40.5394752 226.981462,39.6614115 C226.745845,38.7800866 226.617437,37.755679 226.617437,36.5804433 L226.617437,35.0411822 L222.298456,35.0411822 L222.298456,42.6176408 C221.872469,42.5336662 221.58345,42.4011822 221.428953,42.2250803 C221.174991,42.0232968 221.002966,41.6853605 220.898609,41.1965962 L220.898609,27.4981503 C220.898609,22.2717554 219.77922,18.6066344 217.542889,16.5060484 C215.283322,14.4046471 211.552978,13.3582268 206.326176,13.3582268 L203.909666,13.3582268 L201.706762,13.5746854 L198.562609,14.0964688 L195.411526,14.7544051 C195.411526,14.7544051 192.25922,13.2844433 190.280927,13.2844433 C188.301411,13.2844433 186.056112,13.7948127 184.050507,14.8192204 C183.423959,15.2170803 182.957615,15.506507 182.659628,15.7009529 C182.376316,15.8990675 181.954405,16.2414879 181.418354,16.7261758 L181.418354,13.8685962 L178.414431,14.162507 L176.504622,14.2358828 L173.213717,14.3096662 L171.67894,14.3096662 L169.475628,14.2358828 L169.475628,18.433386 L172.332392,18.5772841 C172.916138,18.6286471 173.32052,18.7529783 173.544316,18.9519083 C173.764036,19.1463541 173.870838,19.7080866 173.870838,20.6444433 L173.870838,38.6838828 C173.870838,40.5023796 173.662125,41.5936408 173.250405,41.9650038 C172.835832,42.3318828 172.332392,42.5634242 171.748239,42.6620739 L170.210609,42.6620739 C169.625641,42.6143796 169.205768,42.4904561 168.964036,42.2911185 C168.674201,41.9018191 168.52745,41.0282395 168.52745,39.6614115 L168.52745,0.0229910828 L165.736316,0.45957707 L155.630431,0.45957707 L155.630431,4.78222675 C158.217743,4.78222675 159.697896,4.91837962 160.062736,5.19027771 C160.432876,5.45809936 160.609386,6.39853248 160.609386,8.00709299 L160.609386,16.3621503 C159.930252,15.675679 159.073794,15.0951949 158.048978,14.6035771 C156.144469,13.7732076 154.04429,13.3582268 151.752112,13.3582268 C147.106201,13.3582268 143.505896,14.9268382 140.94345,18.0734369 C139.701768,19.5984306 138.758482,21.3794242 138.12215,23.4245707 C138.090354,23.303093 138.053666,23.1832459 138.016571,23.0617682 C137.355781,20.9383541 136.363577,19.1422777 135.048927,17.6808764 C132.260647,14.7976153 128.331373,13.3582268 123.252545,13.3582268 C118.243017,13.3582268 114.309666,14.9121631 111.45494,18.0330803 L111.45494,14.162507 L105.883679,14.3834497 L100.243526,14.3834497 L94.8956535,14.162507 L94.8956535,18.5585325 L98.1975643,18.7052841 L100.022583,19.1422777 C100.367857,19.3408 100.533361,19.6864815 100.533361,20.1711694 L100.320163,20.6852076 L100.107373,21.7866599 L93.0747108,39.3825834 L85.8206981,21.4858191 L85.4460739,20.4614115 L85.4460739,20.0203414 C85.4460739,19.6824051 85.6409274,19.3958318 86.0216662,19.183042 C86.4089274,18.9584306 86.9661758,18.8051567 87.6864815,18.7052841 L91.0866344,18.7052841 L91.0866344,14.3834497 L79.1435006,14.3834497 L73.7230675,14.162507 L73.7230675,18.5585325 L75.4816408,18.7052841 L76.2904051,19.2270675 C76.8700739,19.9759083 77.4876535,21.1217936 78.1223541,22.6610548 L88.6746089,47.3520102 L96.2918318,47.3520102 L106.772749,22.587679 L107.577437,20.905335 C108.014838,20.1234752 108.333615,19.6563159 108.525208,19.509972 L109.62666,18.9290803 L110.960061,18.6066344 C108.406991,21.680265 107.132698,25.6833223 107.132698,30.6084688 C107.132698,36.0187108 108.572087,40.2492331 111.45494,43.2971822 C114.331271,46.3386089 118.315985,47.8623796 123.39522,47.8623796 C127.695857,47.8623796 131.064214,46.9888 133.50559,45.2404178 C134.92745,44.2706344 136.021564,43.1324943 136.804239,41.8211057 C137.348443,40.9140994 137.803781,39.7274497 138.177997,38.2627873 C138.813513,40.1864561 139.738456,41.8647236 140.94345,43.2971822 C143.505896,46.3386089 147.036494,47.8623796 151.524239,47.8623796 C154.065896,47.8623796 156.342991,47.3369274 158.342889,46.2831694 C159.315934,45.8021503 160.296724,45.0863287 161.273437,44.1275516 L161.273437,47.425386 L163.833437,47.0589146 L165.523526,46.9851312 L169.405106,46.9146089 L187.202813,46.9146089 L187.202813,42.6620739 L185.663552,42.6620739 C183.915169,42.6620739 182.836545,42.4452076 182.442354,42.0008764 C182.005361,41.6119847 181.781564,40.5578191 181.781564,38.8391949 L181.781564,28.8458191 C181.781564,25.1725452 182.270329,22.5509911 183.251118,20.9823796 C184.28001,19.561335 185.712469,18.852851 187.573768,18.852851 C188.502787,18.852851 189.300545,19.1243414 189.990278,19.6677299 C190.478227,20.3105834 190.721182,21.4748127 190.721182,23.1526726 L190.721182,24.8260484 L195.411526,24.7873223 L199.58987,24.7873223 C199.58987,22.1176662 200.068036,20.3550166 201.044341,19.4875516 C202.025131,18.6249783 203.491017,18.1912459 205.448927,18.1912459 C207.890711,18.1912459 209.819679,18.683679 211.232978,19.6709911 C212.41229,20.6591185 212.999704,22.0883159 212.999704,23.9577682 L212.999704,26.3261758 L208.685208,26.3261758 C203.086634,26.3261758 198.852443,27.2262522 195.980596,29.0264051 C193.104673,30.8249274 191.67629,33.5757045 191.67629,37.2783287 C191.67629,40.682558 192.807093,43.300851 195.069106,45.1262777 C197.331526,46.9521121 200.2368,47.8623796 203.792673,47.8623796 C206.663704,47.8623796 209.0688,47.3369274 211.019781,46.2872459 C211.85015,45.860851 212.624673,45.2844433 213.359654,44.5645452 L213.359654,47.425386 L215.926583,46.9146089 L225.30238,46.9146089 L229.915271,47.4991694 C231.620851,47.7413096 233.316647,47.8623796 234.972494,47.8623796 C239.217692,47.8623796 242.509411,46.9998064 244.819118,45.2697682 C247.144724,43.5433987 248.301615,41.0897936 248.301615,37.924851 C248.301615,36.8005707 248.124698,35.7064561 247.757004,34.6335389 L247.757004,34.6335389 Z" id="Fill-13"></path>
                <path d="M73.7242089,63.7710268 L73.7242089,63.1880968 L74.1281834,63.1880968 C74.3006166,63.1880968 74.4180178,63.1567083 74.4775338,63.0943389 C74.5370497,63.0311541 74.5672153,62.8892943 74.5672153,62.6687592 L74.5672153,59.1988994 C74.5672153,58.9836637 74.5382726,58.8446573 74.4816102,58.7826955 C74.4249478,58.7191032 74.3071389,58.6877146 74.1281834,58.6877146 L73.8049223,58.6877146 L73.8049223,58.1325045 L78.2779924,58.1325045 L78.2779924,59.7459567 L77.6237248,59.7459567 L77.6237248,59.530721 L77.6237248,59.1365299 C77.6184255,59.0468484 77.5907057,58.9779567 77.5430115,58.9302624 C77.4765656,58.8646318 77.2719287,58.8316127 76.9282854,58.8316127 L75.5981452,58.8316127 L75.5981452,60.5347465 L76.0461452,60.5347465 L76.405279,60.5347465 C76.5361325,60.5347465 76.6245911,60.5045809 76.6690242,60.445065 C76.7142726,60.3851414 76.7371006,60.2330904 76.7371006,59.9880968 L76.7371006,59.799358 L77.3285911,59.799358 L77.3285911,61.9423389 L76.7371006,61.9423389 C76.7371006,61.5628229 76.7004127,61.3390268 76.6286675,61.2717656 C76.6050242,61.2350777 76.538986,61.207358 76.4317758,61.189014 L75.9748076,61.189014 L75.5981452,61.189014 L75.5981452,63.0715108 L76.9425529,63.0715108 C77.265814,63.0715108 77.469228,63.0299312 77.5523873,62.9463643 C77.5882599,62.8807338 77.615572,62.7820841 77.6331006,62.6504153 C77.6514446,62.5191541 77.6595975,62.3308229 77.6595975,62.0858293 L77.6595975,61.9782115 L78.3053045,61.9782115 L78.3053045,63.7710268 L73.7242089,63.7710268 Z" id="Fill-15"></path>
                <path d="M88.2556739,58.7865682 C88.1790369,58.8460841 88.1093299,58.9634854 88.0502217,59.1363261 L86.391521,63.8156637 L85.3512153,63.8156637 L83.5408713,59.1897274 L83.4234701,58.9210904 L83.3166675,58.7776 C83.2983236,58.7543643 83.2689732,58.7323516 83.2265783,58.7148229 L82.9306293,58.6703898 L82.9306293,58.1058038 L83.6032408,58.1327083 L83.9799032,58.1327083 L85.0022726,58.1327083 L85.1991643,58.1327083 L85.1991643,58.6785427 C84.809865,58.6785427 84.5942217,58.6928102 84.5489732,58.7209376 C84.5041325,58.747842 84.4817121,58.7886064 84.4817121,58.8444535 L84.5008713,58.9357656 L84.5294064,59.0360459 L85.8999032,62.7337783 L87.1660433,59.080479 L87.1941707,58.946772 L87.2068076,58.8729885 C87.2068076,58.7992051 87.1737885,58.7486573 87.108158,58.7209376 C87.0425274,58.6928102 86.9108586,58.6785427 86.7147822,58.6785427 L86.4636739,58.6785427 L86.4636739,58.1327083 L86.6687185,58.1327083 L87.6197503,58.1327083 L88.0049732,58.1327083 L88.6771771,58.1058038 L88.6771771,58.6785427 C88.4619414,58.6785427 88.3217121,58.7148229 88.2556739,58.7865682" id="Fill-17"></path>
                <path d="M93.1593376,63.7710268 L93.1593376,63.1880968 L93.5633121,63.1880968 C93.7357452,63.1880968 93.8527389,63.1567083 93.9126624,63.0943389 C93.9729936,63.0311541 94.0019363,62.8892943 94.0019363,62.6687592 L94.0019363,59.1988994 C94.0019363,58.9836637 93.9742166,58.8446573 93.9167389,58.7826955 C93.8600764,58.7191032 93.7430828,58.6877146 93.5633121,58.6877146 L93.240051,58.6877146 L93.240051,58.1325045 L97.7139363,58.1325045 L97.7139363,59.7459567 L97.0588535,59.7459567 L97.0588535,59.530721 L97.0588535,59.1365299 C97.0535541,59.0468484 97.0266497,58.9779567 96.9781401,58.9302624 C96.9116943,58.8646318 96.7066497,58.8316127 96.3630064,58.8316127 L95.0332739,58.8316127 L95.0332739,60.5347465 L95.4808662,60.5347465 L95.84,60.5347465 C95.9712611,60.5347465 96.0597197,60.5045809 96.1045605,60.445065 C96.1494013,60.3851414 96.1718217,60.2330904 96.1718217,59.9880968 L96.1718217,59.799358 L96.7637197,59.799358 L96.7637197,61.9423389 L96.1718217,61.9423389 C96.1718217,61.5628229 96.1355414,61.3390268 96.0637962,61.2717656 C96.0397452,61.2350777 95.9741146,61.207358 95.8669045,61.189014 L95.4099363,61.189014 L95.0332739,61.189014 L95.0332739,63.0715108 L96.3780892,63.0715108 C96.7009427,63.0715108 96.903949,63.0299312 96.9875159,62.9463643 C97.0233885,62.8807338 97.0507006,62.7820841 97.0682293,62.6504153 C97.0861656,62.5191541 97.0947261,62.3308229 97.0947261,62.0858293 L97.0947261,61.9782115 L97.7404331,61.9782115 L97.7404331,63.7710268 L93.1593376,63.7710268 Z" id="Fill-19"></path>
                <path d="M107.952346,58.7149045 L107.745264,58.7149045 C107.704499,58.7210191 107.664958,58.7414013 107.629085,58.7772739 C107.574869,58.8433121 107.548372,58.9505223 107.548372,59.100535 L107.548372,63.7709045 L106.401264,63.7709045 L104.141697,59.3875159 L104.141697,62.6861656 L104.141697,62.9014013 C104.141697,62.9849682 104.168601,63.0542675 104.223633,63.1072611 C104.265213,63.1671847 104.383837,63.1973503 104.577468,63.1973503 L104.894206,63.1973503 L104.894206,63.7709045 L104.347964,63.7709045 L103.694104,63.7709045 L103.056958,63.7709045 L102.53762,63.7709045 L102.53762,63.1973503 L102.845391,63.1973503 C103.032907,63.1973503 103.152754,63.1708535 103.204525,63.1166369 C103.255888,63.062828 103.283608,63.0004586 103.289722,62.9278981 L103.289722,62.6861656 L103.289722,59.1539363 C103.289722,59.0532484 103.284423,58.9745732 103.271786,58.921172 C103.260372,58.8673631 103.242028,58.8253758 103.217977,58.7956178 C103.171098,58.7414013 103.053289,58.7149045 102.868219,58.7149045 L102.581646,58.7149045 L102.581646,58.1323822 L103.092831,58.1323822 L103.629697,58.1323822 L104.114792,58.1323822 L104.257875,58.1323822 L104.454767,58.0965096 L106.706181,62.4644076 L106.706181,59.1983694 C106.706181,58.9892484 106.672346,58.8424968 106.605901,58.7589299 C106.556983,58.712051 106.442843,58.688 106.261034,58.688 L105.943073,58.688 L105.943073,58.1323822 L106.104907,58.1323822 L107.127276,58.1323822 L107.521875,58.1323822 L108.256856,58.1140382 L108.256856,58.7149045 L107.952346,58.7149045 Z" id="Fill-21"></path>
                <path d="M117.221055,59.7992764 L117.221055,59.4829452 C117.221055,59.1878115 117.189666,59.0019261 117.127297,58.9265121 C117.064112,58.8510981 116.907577,58.8131873 116.656469,58.8131873 L115.939017,58.8131873 L115.939017,62.6853911 L115.939017,62.9006268 C115.939017,62.9846013 115.965921,63.053493 116.020138,63.1073019 C116.062532,63.1672255 116.180341,63.1973911 116.373972,63.1973911 L116.719246,63.1973911 L116.719246,63.7709452 L116.136316,63.7709452 L115.418864,63.7709452 L114.701411,63.7709452 L114.118889,63.7709452 L114.118889,63.1973911 L114.451118,63.1973911 C114.641896,63.1973911 114.759297,63.1672255 114.800469,63.1073019 C114.830227,63.0775439 114.854278,63.0233274 114.871806,62.9454675 L114.898711,62.6853911 L114.898711,58.8131873 L114.100953,58.8131873 C113.892239,58.8131873 113.745488,58.8498752 113.661921,58.922028 C113.590176,59.0068178 113.554303,59.1788433 113.554303,59.4376968 L113.554303,59.5461299 L113.554303,59.7992764 L112.900036,59.7992764 L112.900036,58.1324229 L113.867781,58.1324229 L114.629666,58.1324229 L116.243934,58.1324229 L117.005819,58.1324229 L117.453819,58.1324229 L117.892851,58.1059261 L117.892851,59.7992764 L117.221055,59.7992764 Z" id="Fill-23"></path>
                <path d="M132.720224,59.0194548 C132.517625,58.8527287 132.215562,58.7683465 131.814848,58.7683465 L131.340352,58.7683465 L131.340352,60.714028 L131.778976,60.714028 C132.185804,60.714028 132.496428,60.6337223 132.711664,60.4722955 C132.902441,60.2994548 132.999052,60.0536459 132.999052,59.736907 C132.999052,59.4087541 132.90611,59.1694675 132.720224,59.0194548 M133.872224,60.4494675 C133.792734,60.6439134 133.666772,60.8081936 133.495562,60.9431236 C133.325982,61.0776459 133.107893,61.1771108 132.841702,61.243149 C132.575918,61.3087796 132.269778,61.3417987 131.923282,61.3417987 L131.340352,61.3417987 L131.340352,62.6931363 L131.340352,62.9536204 C131.352581,63.0078369 131.373778,63.0563465 131.403944,63.0983338 C131.471613,63.164372 131.596759,63.1973911 131.780606,63.1973911 L132.092861,63.1973911 L132.092861,63.7709452 L131.528275,63.7709452 L130.819791,63.7709452 L130.120683,63.7709452 L129.547536,63.7709452 L129.547536,63.1973911 L129.869982,63.1973911 C130.043231,63.1973911 130.153702,63.1708943 130.201396,63.1166777 C130.273549,63.0327032 130.309422,62.8859516 130.309422,62.6764229 L130.309422,59.2000408 C130.309422,58.9843975 130.278033,58.8453911 130.214848,58.782614 C130.152479,58.7194293 130.037116,58.6880408 129.869982,58.6880408 L129.547536,58.6880408 L129.547536,58.114079 L131.931842,58.114079 C132.266517,58.114079 132.553498,58.1454675 132.792785,58.2082446 C133.030848,58.2710217 133.252606,58.3741554 133.45602,58.5176459 C133.815154,58.7985121 133.993702,59.2053401 133.993702,59.736907 C133.993702,60.0177732 133.953345,60.2554293 133.872224,60.4494675" id="Fill-25"></path>
                <path d="M141.990155,59.0110573 C141.804678,58.8553376 141.503837,58.7774777 141.084372,58.7774777 L140.56585,58.7774777 L140.56585,60.6428535 L140.905824,60.6428535 C141.389289,60.6428535 141.736194,60.5690701 141.945722,60.4227261 C142.154843,60.2763822 142.2592,60.0444331 142.2592,59.7276943 C142.2592,59.3877197 142.169111,59.1484331 141.990155,59.0110573 L141.990155,59.0110573 Z M142.555557,63.7711083 L142.393722,63.2154904 L142.232296,62.6052484 C142.214767,62.5216815 142.185824,62.3953121 142.147098,62.2249172 C142.107964,62.0545223 142.085544,61.9632102 142.079429,61.9513885 C141.972627,61.6644076 141.84748,61.4793376 141.703582,61.3953631 C141.560499,61.3117962 141.320397,61.2698089 140.98613,61.2698089 L140.56585,61.2698089 L140.56585,62.6928917 L140.56585,62.9537834 C140.571557,63.0141146 140.596831,63.0695541 140.643302,63.1209172 C140.689773,63.1718726 140.807175,63.1975541 140.996321,63.1975541 L141.318359,63.1975541 L141.318359,63.7711083 L140.753773,63.7711083 L140.045289,63.7711083 L139.337213,63.7711083 L138.763251,63.7711083 L138.763251,63.1975541 L139.077136,63.1975541 C139.267913,63.1975541 139.384499,63.1669809 139.426487,63.107465 C139.455837,63.077707 139.480703,63.0234904 139.498232,62.9452229 L139.525136,62.6855541 L139.525136,59.2002038 L139.525136,58.9303439 C139.519429,58.8647134 139.494155,58.8141656 139.451761,58.7774777 C139.396729,58.7179618 139.27362,58.6877962 139.084474,58.6877962 L138.763251,58.6877962 L138.763251,58.114242 L141.156525,58.114242 C141.86134,58.114242 142.389238,58.2381656 142.738589,58.4864204 C143.088754,58.7338599 143.263225,59.121121 143.263225,59.6477962 C143.263225,60.005707 143.17069,60.3049172 142.985213,60.5437962 C142.847837,60.6995159 142.689264,60.8250701 142.509901,60.9196433 C142.576346,60.9567389 142.627302,60.9877197 142.662767,61.0150318 C142.698639,61.0415287 142.731251,61.0757707 142.761009,61.1181656 C142.881264,61.2747006 143.009264,61.6012229 143.147862,62.0989554 L143.18292,62.2518217 C143.259964,62.5701911 143.350054,62.8074395 143.451149,62.9627516 C143.55306,63.1192866 143.681875,63.1975541 143.837187,63.1975541 L144.042639,63.1975541 L144.042639,63.7711083 L142.555557,63.7711083 Z" id="Fill-27"></path>
                <path d="M152.676443,59.2431694 C152.401692,58.8608 152.003832,58.6704306 151.484494,58.6704306 C150.970048,58.6704306 150.57545,58.8608 150.301513,59.2431694 C150.026762,59.6247236 149.888163,60.1848255 149.888163,60.9246981 C149.888163,61.6580484 150.027577,62.2177427 150.30559,62.602558 C150.583195,62.9869656 150.975755,63.1797809 151.484494,63.1797809 C152.003832,63.1797809 152.401692,62.9930803 152.676443,62.6200866 C152.95201,62.247093 153.088978,61.6816917 153.088978,60.9246981 C153.088978,60.1848255 152.95201,59.6247236 152.676443,59.2431694 M153.487654,63.1129274 C153.007042,63.6302268 152.342176,63.8874497 151.493462,63.8874497 C150.638227,63.8874497 149.973361,63.6249274 149.498048,63.0998828 C149.023552,62.5748382 148.786303,61.8529019 148.786303,60.9336662 C148.786303,60.0022013 149.024367,59.2810803 149.503755,58.7678573 C149.980698,58.2542268 150.644749,57.9974115 151.493462,57.9974115 C152.347475,57.9974115 153.013972,58.2542268 153.492545,58.7678573 C153.970303,59.2810803 154.209182,60.0022013 154.209182,60.9336662 C154.209182,61.8704306 153.968673,62.5972586 153.487654,63.1129274" id="Fill-29"></path>
                <path d="M162.977427,59.7459567 L162.977427,59.530721 C162.977427,59.2082752 162.947261,59.0081223 162.887338,58.9302624 C162.827006,58.8528102 162.621554,58.8132688 162.268943,58.8132688 L160.986904,58.8132688 L160.986904,60.5437146 L161.416968,60.5437146 C161.757758,60.5437146 161.957503,60.5139567 162.017834,60.4540331 C162.077758,60.3945172 162.107924,60.2387975 162.107924,59.9880968 L162.107924,59.799358 L162.698599,59.799358 L162.698599,61.9423389 L162.107924,61.9423389 C162.107924,61.5840204 162.072051,61.3622624 162.000713,61.2786955 C161.97014,61.2371159 161.907363,61.213065 161.811975,61.207358 L161.426344,61.189014 L160.986904,61.189014 L160.986904,62.6467465 L160.986904,62.9537019 C160.998726,63.0197401 161.021962,63.0674344 161.055389,63.0984153 C161.088815,63.1277656 161.145478,63.1522242 161.225783,63.1705682 L161.491159,63.1974726 L161.811975,63.1974726 L161.811975,63.7710268 L161.210701,63.7710268 L160.457376,63.7710268 L159.721987,63.7710268 L159.130904,63.7710268 L159.130904,63.1974726 L159.516535,63.1974726 C159.690191,63.1974726 159.806369,63.1656764 159.866701,63.1024917 C159.926624,63.0401223 159.955975,62.8978548 159.955975,62.6760968 L159.955975,59.2001223 C159.955975,58.984479 159.927439,58.8454726 159.870777,58.7826955 C159.814115,58.7191032 159.696306,58.6877146 159.516535,58.6877146 L159.193274,58.6877146 L159.193274,58.1141605 L163.631694,58.1141605 L163.631694,59.7459567 L162.977427,59.7459567 Z" id="Fill-31"></path>
                <path d="M168.149401,63.7710268 L168.149401,63.1880968 L168.552968,63.1880968 C168.725809,63.1880968 168.842803,63.1567083 168.902726,63.0943389 C168.962242,63.0311541 168.992408,62.8892943 168.992408,62.6687592 L168.992408,59.1988994 C168.992408,58.9836637 168.963873,58.8446573 168.906395,58.7826955 C168.85014,58.7191032 168.732331,58.6877146 168.552968,58.6877146 L168.229707,58.6877146 L168.229707,58.1325045 L172.703592,58.1325045 L172.703592,59.7459567 L172.048917,59.7459567 L172.048917,59.530721 L172.048917,59.1365299 C172.043618,59.0468484 172.01549,58.9779567 171.968611,58.9302624 C171.901758,58.8646318 171.697121,58.8316127 171.35307,58.8316127 L170.02293,58.8316127 L170.02293,60.5347465 L170.47093,60.5347465 L170.830064,60.5347465 C170.961325,60.5347465 171.049783,60.5045809 171.093809,60.445065 C171.139873,60.3851414 171.162293,60.2330904 171.162293,59.9880968 L171.162293,59.799358 L171.753783,59.799358 L171.753783,61.9423389 L171.162293,61.9423389 C171.162293,61.5628229 171.125605,61.3390268 171.05386,61.2717656 C171.029809,61.2350777 170.963771,61.207358 170.857376,61.189014 L170.399592,61.189014 L170.02293,61.189014 L170.02293,63.0715108 L171.367745,63.0715108 C171.691006,63.0715108 171.894013,63.0299312 171.97758,62.9463643 C172.013452,62.8807338 172.040357,62.7820841 172.057885,62.6504153 C172.076229,62.5191541 172.08479,62.3308229 172.08479,62.0858293 L172.08479,61.9782115 L172.730497,61.9782115 L172.730497,63.7710268 L168.149401,63.7710268 Z" id="Fill-33"></path>
                <path d="M181.353987,63.4406318 C180.965503,63.7386191 180.424968,63.8874089 179.731567,63.8874089 C179.498803,63.8874089 179.238726,63.8727338 178.95093,63.8429758 L178.369223,63.7626701 L177.795261,63.6550522 L177.795261,61.9339822 L178.529834,61.942135 L178.529834,62.1643006 L178.529834,62.2719185 C178.529834,62.6102624 178.613401,62.8540331 178.78135,63.0016 C178.97172,63.1560968 179.283159,63.2331414 179.714038,63.2331414 C180.101707,63.2331414 180.393987,63.1487592 180.588025,62.9799949 C180.781656,62.8108229 180.878675,62.593549 180.878675,62.327358 C180.878675,62.1671541 180.830166,62.0216255 180.734369,61.8915873 C180.638981,61.7611414 180.467771,61.6457783 180.222777,61.5454981 L179.228943,61.1203261 C178.726726,60.9107975 178.371669,60.6882242 178.162955,60.4521987 C177.953427,60.2157656 177.848255,59.9267465 177.848255,59.5859567 C177.848255,59.0776255 178.034548,58.6854726 178.405096,58.410721 C178.776051,58.1351541 179.298242,57.9973707 179.973299,57.9973707 C180.164484,57.9973707 180.404178,58.0128611 180.690752,58.0426191 L181.228841,58.1233325 L181.757554,58.2395108 L181.757554,59.8529631 L181.049885,59.8439949 L181.049885,59.6291669 L181.049885,59.4681478 C181.049885,59.1750522 180.972433,58.9651159 180.820382,58.8363006 C180.668331,58.7074854 180.406624,58.6426701 180.035669,58.6426701 C179.670828,58.6426701 179.389146,58.7148229 179.188994,58.8583134 C178.988433,59.0018038 178.888968,59.1933962 178.888968,59.4322752 C178.888968,59.5994089 178.936662,59.7404535 179.032459,59.8529631 C179.079338,59.9071796 179.151898,59.9654726 179.247287,60.0286573 C179.342675,60.0906191 179.465376,60.1493197 179.614981,60.2031287 L180.716841,60.6429758 C181.129376,60.8097019 181.435924,61.0200459 181.636484,61.2731924 C181.836637,61.5263389 181.936917,61.8222879 181.936917,62.1622624 C181.936917,62.7162497 181.742471,63.1426446 181.353987,63.4406318" id="Fill-35"></path>
                <path d="M190.632683,63.4406318 C190.244199,63.7386191 189.703664,63.8874089 189.009447,63.8874089 C188.776683,63.8874089 188.517422,63.8727338 188.229625,63.8429758 L187.647918,63.7626701 L187.073141,63.6550522 L187.073141,61.9339822 L187.80853,61.942135 L187.80853,62.1643006 L187.80853,62.2719185 C187.80853,62.6102624 187.891282,62.8540331 188.060046,63.0016 C188.250415,63.1560968 188.561855,63.2331414 188.991918,63.2331414 C189.380403,63.2331414 189.671868,63.1487592 189.865906,62.9799949 C190.059536,62.8108229 190.157371,62.593549 190.157371,62.327358 C190.157371,62.1671541 190.108861,62.0216255 190.013065,61.8915873 C189.917676,61.7611414 189.746466,61.6457783 189.501473,61.5454981 L188.507638,61.1203261 C188.005422,60.9107975 187.649549,60.6882242 187.441651,60.4521987 C187.231307,60.2157656 187.12695,59.9267465 187.12695,59.5859567 C187.12695,59.0776255 187.312428,58.6854726 187.683791,58.410721 C188.053931,58.1351541 188.576122,57.9973707 189.251995,57.9973707 C189.442364,57.9973707 189.682874,58.0128611 189.968632,58.0426191 L190.506721,58.1233325 L191.03625,58.2395108 L191.03625,59.8529631 L190.327766,59.8439949 L190.327766,59.6291669 L190.327766,59.4681478 C190.327766,59.1750522 190.251129,58.9651159 190.099078,58.8363006 C189.947027,58.7074854 189.68532,58.6426701 189.314364,58.6426701 C188.949524,58.6426701 188.667027,58.7148229 188.466874,58.8583134 C188.266313,59.0018038 188.166848,59.1933962 188.166848,59.4322752 C188.166848,59.5994089 188.214543,59.7404535 188.311154,59.8529631 C188.358033,59.9071796 188.430594,59.9654726 188.525982,60.0286573 C188.621371,60.0906191 188.744071,60.1493197 188.893676,60.2031287 L189.995536,60.6429758 C190.408071,60.8097019 190.714619,61.0200459 190.91518,61.2731924 C191.115332,61.5263389 191.215613,61.8222879 191.215613,62.1622624 C191.215613,62.7162497 191.021167,63.1426446 190.632683,63.4406318" id="Fill-37"></path>
                <path d="M198.180443,63.7710268 L197.472775,63.7710268 L196.763883,63.7710268 L196.199704,63.7710268 L196.199704,63.1974726 L196.503806,63.1974726 C196.695399,63.1974726 196.811985,63.167307 196.853972,63.1073834 C196.883322,63.0776255 196.908189,63.0234089 196.926532,62.945549 L196.952622,62.6854726 L196.952622,59.2001223 L196.952622,58.9302624 C196.946507,58.8646318 196.921641,58.8140841 196.879654,58.7773962 C196.823806,58.7178803 196.701106,58.6877146 196.511552,58.6877146 L196.199704,58.6877146 L196.199704,58.1325045 L197.041896,58.1325045 L197.472775,58.1325045 L197.911399,58.1325045 L198.745029,58.1141605 L198.745029,58.6877146 L198.431959,58.6877146 L198.189819,58.6877146 C198.142125,58.7003516 198.102583,58.7239949 198.072825,58.7598675 C198.019424,58.826721 197.99252,58.9698038 197.99252,59.1919694 L197.99252,62.683842 L197.99252,62.9007083 C197.99252,62.9838675 198.019424,63.0535745 198.073641,63.1073834 C198.116851,63.167307 198.23466,63.1974726 198.427883,63.1974726 L198.745029,63.1974726 L198.745029,63.7710268 L198.180443,63.7710268 Z" id="Fill-39"></path>
                <path d="M207.639032,59.2431694 C207.363465,58.8608 206.96642,58.6704306 206.446268,58.6704306 C205.932637,58.6704306 205.538038,58.8608 205.263287,59.2431694 C204.98772,59.6247236 204.850752,60.1848255 204.850752,60.9246981 C204.850752,61.6580484 204.98935,62.2177427 205.268178,62.602558 C205.545783,62.9869656 205.938344,63.1797809 206.446268,63.1797809 C206.96642,63.1797809 207.363465,62.9930803 207.639032,62.6200866 C207.913783,62.247093 208.050752,61.6816917 208.050752,60.9246981 C208.050752,60.1848255 207.913783,59.6247236 207.639032,59.2431694 M208.450242,63.1129274 C207.968,63.6302268 207.303949,63.8874497 206.455236,63.8874497 C205.6,63.8874497 204.935134,63.6249274 204.460637,63.0998828 C203.98614,62.5748382 203.747261,61.8529019 203.747261,60.9336662 C203.747261,60.0022013 203.986955,59.2810803 204.464713,58.7678573 C204.943287,58.2542268 205.606522,57.9974115 206.455236,57.9974115 C207.309248,57.9974115 207.976561,58.2542268 208.454318,58.7678573 C208.932076,59.2810803 209.171771,60.0022013 209.171771,60.9336662 C209.171771,61.8704306 208.931261,62.5972586 208.450242,63.1129274" id="Fill-41"></path>
                <path d="M219.481396,58.7149045 L219.274313,58.7149045 C219.233141,58.7210191 219.194008,58.7414013 219.158135,58.7772739 C219.103918,58.8433121 219.077829,58.9505223 219.077829,59.100535 L219.077829,63.7709045 L217.930313,63.7709045 L215.670746,59.3875159 L215.670746,62.6861656 L215.670746,62.9014013 C215.670746,62.9849682 215.698059,63.0542675 215.75309,63.1072611 C215.795078,63.1671847 215.912887,63.1973503 216.106517,63.1973503 L216.424071,63.1973503 L216.424071,63.7709045 L215.877014,63.7709045 L215.223562,63.7709045 L214.586415,63.7709045 L214.06667,63.7709045 L214.06667,63.1973503 L214.374848,63.1973503 C214.561957,63.1973503 214.682211,63.1708535 214.733982,63.1166369 C214.784938,63.062828 214.812657,63.0004586 214.819587,62.9278981 L214.819587,62.6861656 L214.819587,59.1539363 C214.819587,59.0532484 214.813473,58.9745732 214.801651,58.921172 C214.789422,58.8673631 214.771078,58.8253758 214.747434,58.7956178 C214.700148,58.7414013 214.583154,58.7149045 214.397676,58.7149045 L214.111103,58.7149045 L214.111103,58.1323822 L214.622288,58.1323822 L215.158746,58.1323822 L215.643842,58.1323822 L215.786925,58.1323822 L215.983817,58.0965096 L218.235231,62.4644076 L218.235231,59.1983694 C218.235231,58.9892484 218.201804,58.8424968 218.13495,58.7589299 C218.086441,58.712051 217.971893,58.688 217.790492,58.688 L217.473345,58.688 L217.473345,58.1323822 L217.634364,58.1323822 L218.656734,58.1323822 L219.050517,58.1323822 L219.785498,58.1140382 L219.785498,58.7149045 L219.481396,58.7149045 Z" id="Fill-43"></path>
                <path d="M227.250507,59.163149 L226.519603,61.1447032 L227.990787,61.1467414 L227.250507,59.163149 Z M229.614431,63.771149 L229.189259,63.771149 L228.791806,63.771149 L227.99731,63.771149 L227.99731,63.1882191 L228.134278,63.1882191 C228.397208,63.1882191 228.550074,63.179251 228.592876,63.1600917 C228.634864,63.1421554 228.656469,63.1103592 228.656469,63.0659261 L228.626303,62.9424102 L228.603068,62.8327541 L228.569641,62.724321 L228.254532,61.8348433 L226.258303,61.8348433 L225.911399,62.8421299 L225.854736,62.9656459 L225.854736,63.0451363 C225.854736,63.0863083 225.873896,63.120958 225.913029,63.1478624 C225.951755,63.1747669 226.102583,63.1882191 226.365106,63.1882191 L226.482099,63.1882191 L226.482099,63.771149 L225.759348,63.771149 L225.374532,63.771149 L224.999908,63.771149 L224.276749,63.771149 L224.276749,63.1882191 C224.52215,63.1882191 224.686023,63.1552 224.770405,63.0899771 C224.853157,63.0243465 224.931424,62.8865631 225.002762,62.6770344 L226.795985,58.1142828 L227.817539,58.1142828 L229.637259,62.6953783 C229.715526,62.9252892 229.795832,63.0675567 229.880214,63.1229962 C229.933615,63.160907 229.990278,63.1816968 230.049794,63.1882191 L230.373055,63.2057478 L230.373055,63.771149 L229.614431,63.771149 Z" id="Fill-45"></path>
                <path d="M234.900994,63.7710268 L234.900994,63.1880968 L235.214064,63.1880968 C235.405656,63.1880968 235.521834,63.1579312 235.563414,63.0984153 C235.59358,63.0686573 235.617631,63.0152561 235.635159,62.9369885 L235.662064,62.6769121 L235.662064,59.1988994 L235.662064,58.9302624 C235.655949,58.8646318 235.631083,58.8132688 235.589503,58.7773962 C235.534064,58.7178803 235.411363,58.6877146 235.220994,58.6877146 L234.900994,58.6877146 L234.900994,58.1325045 L235.759898,58.1325045 L236.200968,58.1325045 L236.64,58.1325045 L237.483006,58.1060076 L237.491159,58.6877146 L237.133656,58.6877146 C236.949401,58.6877146 236.827108,58.7178803 236.766369,58.7773962 C236.729682,58.8197911 236.708484,58.879307 236.701962,58.9567592 L236.701962,59.1988994 L236.701962,63.0629503 L237.867414,63.0629503 L238.270573,63.0360459 C238.354955,63.0177019 238.418548,62.9830522 238.463796,62.9329121 C238.508637,62.8823643 238.540433,62.7898293 238.557962,62.655307 C238.576306,62.5207847 238.584866,62.3361223 238.584866,62.1041732 L238.584866,61.9961478 L239.229758,61.9961478 L239.229758,63.7710268 L234.900994,63.7710268 Z" id="Fill-47"></path>
                <path d="M247.72105,63.4406318 C247.330935,63.7386191 246.791215,63.8874089 246.096999,63.8874089 C245.863419,63.8874089 245.604973,63.8727338 245.317585,63.8429758 L244.73547,63.7626701 L244.159878,63.6550522 L244.159878,61.9339822 L244.896082,61.942135 L244.896082,62.1643006 L244.896082,62.2719185 C244.896082,62.6102624 244.978833,62.8540331 245.14719,63.0016 C245.337967,63.1560968 245.649406,63.2331414 246.080285,63.2331414 C246.467139,63.2331414 246.758604,63.1487592 246.953457,62.9799949 C247.147088,62.8108229 247.244107,62.593549 247.244107,62.327358 C247.244107,62.1671541 247.196413,62.0216255 247.101024,61.8915873 C247.004413,61.7611414 246.833203,61.6457783 246.587394,61.5454981 L245.594375,61.1203261 C245.092973,60.9107975 244.736285,60.6882242 244.529203,60.4521987 C244.318043,60.2157656 244.214502,59.9267465 244.214502,59.5859567 C244.214502,59.0776255 244.400387,58.6854726 244.770527,58.410721 C245.141483,58.1351541 245.663674,57.9973707 246.339546,57.9973707 C246.529916,57.9973707 246.76961,58.0128611 247.056183,58.0426191 L247.594273,58.1233325 L248.122986,58.2395108 L248.122986,59.8529631 L247.415317,59.8439949 L247.415317,59.6291669 L247.415317,59.4681478 C247.415317,59.1750522 247.338273,58.9651159 247.186629,58.8363006 C247.034578,58.7074854 246.772871,58.6426701 246.402731,58.6426701 C246.03626,58.6426701 245.754578,58.7148229 245.555241,58.8583134 C245.35468,59.0018038 245.253585,59.1933962 245.253585,59.4322752 C245.253585,59.5994089 245.30291,59.7404535 245.398706,59.8529631 C245.4464,59.9071796 245.51733,59.9654726 245.612718,60.0286573 C245.708107,60.0906191 245.831623,60.1493197 245.980413,60.2031287 L247.08268,60.6429758 C247.494808,60.8097019 247.802171,61.0200459 248.002731,61.2731924 C248.202069,61.5263389 248.303164,61.8222879 248.303164,62.1622624 C248.303164,62.7162497 248.107903,63.1426446 247.72105,63.4406318" id="Fill-49"></path>
            </g>
        </g>
    </g>
</svg>